<mxfile host="app.diagrams.net" modified="2021-06-15T19:45:53.173Z" agent="5.0 (X11; Linux x86_64) AppleWebKit/537.36 (KHTML, like Gecko) Chrome/91.0.4472.101 Safari/537.36" etag="S6HxKG39vVyQrqLws8cT" version="14.7.8" type="github">
  <diagram id="4tNWnQTapFE8HMPZdZZ_" name="Page-1">
    <mxGraphModel dx="4204" dy="2149" grid="1" gridSize="10" guides="1" tooltips="1" connect="1" arrows="1" fold="1" page="1" pageScale="1" pageWidth="827" pageHeight="1169" math="0" shadow="0">
      <root>
        <mxCell id="0" />
        <mxCell id="1" parent="0" />
        <mxCell id="vVjUSeeUK6tISCBlMtEA-2" value="&lt;h1&gt;&lt;span style=&quot;font-weight: normal&quot; id=&quot;docs-internal-guid-a411660d-7fff-bb05-9f02-90b5b11cd048&quot;&gt;&lt;p dir=&quot;ltr&quot; style=&quot;line-height: 1.38 ; text-indent: 36pt ; margin-top: 0pt ; margin-bottom: 0pt&quot;&gt;&lt;span style=&quot;font-size: 14pt ; font-family: &amp;#34;arial&amp;#34; ; background-color: transparent ; vertical-align: baseline&quot;&gt;begin&amp;nbsp;&lt;/span&gt;&lt;/p&gt;&lt;p dir=&quot;ltr&quot; style=&quot;line-height: 1.38 ; text-indent: 36pt ; margin-top: 0pt ; margin-bottom: 0pt&quot;&gt;&lt;span style=&quot;font-size: 14pt ; font-family: &amp;#34;arial&amp;#34; ; background-color: transparent ; vertical-align: baseline&quot;&gt;&lt;span class=&quot;Apple-tab-span&quot;&gt;	&lt;/span&gt;&lt;/span&gt;&lt;span style=&quot;font-size: 14pt ; font-family: &amp;#34;arial&amp;#34; ; background-color: transparent ; vertical-align: baseline&quot;&gt;&lt;span style=&quot;white-space: pre&quot;&gt;	&lt;/span&gt;&amp;nbsp; &amp;nbsp;numberOfItem := tabla.size();&lt;/span&gt;&lt;/p&gt;&lt;p dir=&quot;ltr&quot; style=&quot;line-height: 1.38 ; margin-left: 36pt ; text-indent: 36pt ; margin-top: 0pt ; margin-bottom: 0pt&quot;&gt;&lt;span style=&quot;font-size: 14pt ; font-family: &amp;#34;arial&amp;#34; ; background-color: transparent ; vertical-align: baseline&quot;&gt;found:=false;&amp;nbsp;&lt;/span&gt;&lt;/p&gt;&lt;p dir=&quot;ltr&quot; style=&quot;line-height: 1.38 ; margin-left: 36pt ; text-indent: 36pt ; margin-top: 0pt ; margin-bottom: 0pt&quot;&gt;&lt;span style=&quot;font-size: 14pt ; font-family: &amp;#34;arial&amp;#34; ; background-color: transparent ; vertical-align: baseline&quot;&gt;counter:=1;&amp;nbsp;&lt;/span&gt;&lt;/p&gt;&lt;p dir=&quot;ltr&quot; style=&quot;line-height: 1.38 ; margin-left: 36pt ; text-indent: 36pt ; margin-top: 0pt ; margin-bottom: 0pt&quot;&gt;&lt;span style=&quot;font-size: 14pt ; font-family: &amp;#34;arial&amp;#34; ; background-color: transparent ; vertical-align: baseline&quot;&gt;while ((not found) and (counter &amp;lt; numberOfItem))&amp;nbsp;&lt;/span&gt;&lt;/p&gt;&lt;p dir=&quot;ltr&quot; style=&quot;line-height: 1.38 ; margin-left: 72pt ; text-indent: 36pt ; margin-top: 0pt ; margin-bottom: 0pt&quot;&gt;&lt;span style=&quot;font-size: 14pt ; font-family: &amp;#34;arial&amp;#34; ; background-color: transparent ; vertical-align: baseline&quot;&gt;begin&amp;nbsp;&lt;/span&gt;&lt;/p&gt;&lt;p dir=&quot;ltr&quot; style=&quot;line-height: 1.38 ; margin-left: 108pt ; text-indent: 36pt ; margin-top: 0pt ; margin-bottom: 0pt&quot;&gt;&lt;span style=&quot;font-size: 14pt ; font-family: &amp;#34;arial&amp;#34; ; background-color: transparent ; vertical-align: baseline&quot;&gt;if (tabla[counter] = desiredElement)&amp;nbsp;&lt;/span&gt;&lt;/p&gt;&lt;p dir=&quot;ltr&quot; style=&quot;line-height: 1.38 ; margin-left: 144pt ; text-indent: 36pt ; margin-top: 0pt ; margin-bottom: 0pt&quot;&gt;&lt;span style=&quot;font-size: 14pt ; font-family: &amp;#34;arial&amp;#34; ; background-color: transparent ; vertical-align: baseline&quot;&gt;found=true;&amp;nbsp;&lt;/span&gt;&lt;/p&gt;&lt;p dir=&quot;ltr&quot; style=&quot;line-height: 1.38 ; margin-left: 144pt ; margin-top: 0pt ; margin-bottom: 0pt&quot;&gt;&lt;span style=&quot;font-size: 14pt ; font-family: &amp;#34;arial&amp;#34; ; background-color: transparent ; vertical-align: baseline&quot;&gt;counter:=counter+1;&amp;nbsp;&lt;/span&gt;&lt;/p&gt;&lt;p dir=&quot;ltr&quot; style=&quot;line-height: 1.38 ; margin-left: 72pt ; text-indent: 36pt ; margin-top: 0pt ; margin-bottom: 0pt&quot;&gt;&lt;span style=&quot;font-size: 14pt ; font-family: &amp;#34;arial&amp;#34; ; background-color: transparent ; vertical-align: baseline&quot;&gt;endWhile&amp;nbsp;&lt;/span&gt;&lt;/p&gt;&lt;p dir=&quot;ltr&quot; style=&quot;line-height: 1.38 ; margin-left: 72pt ; margin-top: 0pt ; margin-bottom: 0pt&quot;&gt;&lt;span style=&quot;font-size: 14pt ; font-family: &amp;#34;arial&amp;#34; ; background-color: transparent ; vertical-align: baseline&quot;&gt;if (found) then&amp;nbsp;&lt;/span&gt;&lt;/p&gt;&lt;p dir=&quot;ltr&quot; style=&quot;line-height: 1.38 ; margin-left: 108pt ; margin-top: 0pt ; margin-bottom: 0pt&quot;&gt;&lt;span style=&quot;font-size: 14pt ; font-family: &amp;#34;arial&amp;#34; ; background-color: transparent ; vertical-align: baseline&quot;&gt;return:=true&amp;nbsp;&lt;/span&gt;&lt;/p&gt;&lt;p dir=&quot;ltr&quot; style=&quot;line-height: 1.38 ; margin-left: 36pt ; text-indent: 36pt ; margin-top: 0pt ; margin-bottom: 0pt&quot;&gt;&lt;span style=&quot;font-size: 14pt ; font-family: &amp;#34;arial&amp;#34; ; background-color: transparent ; vertical-align: baseline&quot;&gt;else&amp;nbsp;&lt;/span&gt;&lt;/p&gt;&lt;p dir=&quot;ltr&quot; style=&quot;line-height: 1.38 ; margin-left: 108pt ; margin-top: 0pt ; margin-bottom: 0pt&quot;&gt;&lt;span style=&quot;font-size: 14pt ; font-family: &amp;#34;arial&amp;#34; ; background-color: transparent ; vertical-align: baseline&quot;&gt;return:=false&amp;nbsp;&lt;/span&gt;&lt;/p&gt;&lt;p dir=&quot;ltr&quot; style=&quot;line-height: 1.38 ; text-indent: 36pt ; margin-top: 0pt ; margin-bottom: 0pt&quot;&gt;&lt;span style=&quot;font-size: 14pt ; font-family: &amp;#34;arial&amp;#34; ; background-color: transparent ; vertical-align: baseline&quot;&gt;end.&lt;/span&gt;&lt;/p&gt;&lt;div&gt;&lt;span style=&quot;font-size: 14pt ; font-family: &amp;#34;arial&amp;#34; ; background-color: transparent ; vertical-align: baseline&quot;&gt;&lt;br&gt;&lt;/span&gt;&lt;/div&gt;&lt;/span&gt;&lt;/h1&gt;" style="text;html=1;strokeColor=none;fillColor=none;spacing=5;spacingTop=-20;whiteSpace=wrap;overflow=hidden;rounded=0;" vertex="1" parent="1">
          <mxGeometry x="-290" y="400" width="530" height="500" as="geometry" />
        </mxCell>
        <mxCell id="vVjUSeeUK6tISCBlMtEA-17" style="edgeStyle=orthogonalEdgeStyle;rounded=0;orthogonalLoop=1;jettySize=auto;html=1;exitX=0.5;exitY=1;exitDx=0;exitDy=0;entryX=0.5;entryY=0;entryDx=0;entryDy=0;" edge="1" parent="1" source="vVjUSeeUK6tISCBlMtEA-4" target="vVjUSeeUK6tISCBlMtEA-5">
          <mxGeometry relative="1" as="geometry" />
        </mxCell>
        <mxCell id="vVjUSeeUK6tISCBlMtEA-4" value="" style="ellipse;whiteSpace=wrap;html=1;aspect=fixed;" vertex="1" parent="1">
          <mxGeometry x="730" y="160" width="80" height="80" as="geometry" />
        </mxCell>
        <mxCell id="vVjUSeeUK6tISCBlMtEA-19" style="edgeStyle=orthogonalEdgeStyle;rounded=0;orthogonalLoop=1;jettySize=auto;html=1;exitX=0.5;exitY=1;exitDx=0;exitDy=0;entryX=0.5;entryY=0;entryDx=0;entryDy=0;" edge="1" parent="1" source="vVjUSeeUK6tISCBlMtEA-5" target="vVjUSeeUK6tISCBlMtEA-8">
          <mxGeometry relative="1" as="geometry" />
        </mxCell>
        <mxCell id="vVjUSeeUK6tISCBlMtEA-5" value="" style="ellipse;whiteSpace=wrap;html=1;aspect=fixed;" vertex="1" parent="1">
          <mxGeometry x="730" y="270" width="80" height="80" as="geometry" />
        </mxCell>
        <mxCell id="vVjUSeeUK6tISCBlMtEA-23" style="edgeStyle=orthogonalEdgeStyle;rounded=0;orthogonalLoop=1;jettySize=auto;html=1;exitX=0.5;exitY=1;exitDx=0;exitDy=0;entryX=0.5;entryY=0;entryDx=0;entryDy=0;" edge="1" parent="1" source="vVjUSeeUK6tISCBlMtEA-6" target="vVjUSeeUK6tISCBlMtEA-7">
          <mxGeometry relative="1" as="geometry" />
        </mxCell>
        <mxCell id="vVjUSeeUK6tISCBlMtEA-6" value="" style="ellipse;whiteSpace=wrap;html=1;aspect=fixed;" vertex="1" parent="1">
          <mxGeometry x="730" y="584" width="80" height="80" as="geometry" />
        </mxCell>
        <mxCell id="vVjUSeeUK6tISCBlMtEA-25" style="edgeStyle=orthogonalEdgeStyle;rounded=0;orthogonalLoop=1;jettySize=auto;html=1;exitX=0.5;exitY=1;exitDx=0;exitDy=0;entryX=0.5;entryY=0;entryDx=0;entryDy=0;" edge="1" parent="1" source="vVjUSeeUK6tISCBlMtEA-7" target="vVjUSeeUK6tISCBlMtEA-11">
          <mxGeometry relative="1" as="geometry" />
        </mxCell>
        <mxCell id="vVjUSeeUK6tISCBlMtEA-7" value="" style="ellipse;whiteSpace=wrap;html=1;aspect=fixed;" vertex="1" parent="1">
          <mxGeometry x="730" y="684" width="80" height="80" as="geometry" />
        </mxCell>
        <mxCell id="vVjUSeeUK6tISCBlMtEA-20" style="edgeStyle=orthogonalEdgeStyle;rounded=0;orthogonalLoop=1;jettySize=auto;html=1;exitX=0.5;exitY=1;exitDx=0;exitDy=0;entryX=0.5;entryY=0;entryDx=0;entryDy=0;" edge="1" parent="1" source="vVjUSeeUK6tISCBlMtEA-8" target="vVjUSeeUK6tISCBlMtEA-9">
          <mxGeometry relative="1" as="geometry" />
        </mxCell>
        <mxCell id="vVjUSeeUK6tISCBlMtEA-8" value="" style="ellipse;whiteSpace=wrap;html=1;aspect=fixed;" vertex="1" parent="1">
          <mxGeometry x="730" y="380" width="80" height="80" as="geometry" />
        </mxCell>
        <mxCell id="vVjUSeeUK6tISCBlMtEA-22" style="edgeStyle=orthogonalEdgeStyle;rounded=0;orthogonalLoop=1;jettySize=auto;html=1;exitX=0.5;exitY=1;exitDx=0;exitDy=0;entryX=0.5;entryY=0;entryDx=0;entryDy=0;" edge="1" parent="1" source="vVjUSeeUK6tISCBlMtEA-9" target="vVjUSeeUK6tISCBlMtEA-6">
          <mxGeometry relative="1" as="geometry" />
        </mxCell>
        <mxCell id="vVjUSeeUK6tISCBlMtEA-9" value="" style="ellipse;whiteSpace=wrap;html=1;aspect=fixed;" vertex="1" parent="1">
          <mxGeometry x="730" y="480" width="80" height="80" as="geometry" />
        </mxCell>
        <mxCell id="vVjUSeeUK6tISCBlMtEA-26" style="edgeStyle=orthogonalEdgeStyle;rounded=0;orthogonalLoop=1;jettySize=auto;html=1;exitX=0.5;exitY=1;exitDx=0;exitDy=0;entryX=0.5;entryY=0;entryDx=0;entryDy=0;" edge="1" parent="1" source="vVjUSeeUK6tISCBlMtEA-11" target="vVjUSeeUK6tISCBlMtEA-12">
          <mxGeometry relative="1" as="geometry" />
        </mxCell>
        <mxCell id="vVjUSeeUK6tISCBlMtEA-11" value="" style="ellipse;whiteSpace=wrap;html=1;aspect=fixed;" vertex="1" parent="1">
          <mxGeometry x="730" y="790" width="80" height="80" as="geometry" />
        </mxCell>
        <mxCell id="vVjUSeeUK6tISCBlMtEA-28" style="edgeStyle=orthogonalEdgeStyle;rounded=0;orthogonalLoop=1;jettySize=auto;html=1;exitX=0.5;exitY=1;exitDx=0;exitDy=0;entryX=0.5;entryY=0;entryDx=0;entryDy=0;" edge="1" parent="1" source="vVjUSeeUK6tISCBlMtEA-12" target="vVjUSeeUK6tISCBlMtEA-15">
          <mxGeometry relative="1" as="geometry" />
        </mxCell>
        <mxCell id="vVjUSeeUK6tISCBlMtEA-12" value="" style="ellipse;whiteSpace=wrap;html=1;aspect=fixed;" vertex="1" parent="1">
          <mxGeometry x="730" y="900" width="80" height="80" as="geometry" />
        </mxCell>
        <mxCell id="vVjUSeeUK6tISCBlMtEA-44" style="edgeStyle=orthogonalEdgeStyle;rounded=0;orthogonalLoop=1;jettySize=auto;html=1;entryX=0.5;entryY=0;entryDx=0;entryDy=0;exitX=0;exitY=0.5;exitDx=0;exitDy=0;" edge="1" parent="1" source="vVjUSeeUK6tISCBlMtEA-33" target="vVjUSeeUK6tISCBlMtEA-14">
          <mxGeometry relative="1" as="geometry">
            <mxPoint x="580" y="1384" as="sourcePoint" />
          </mxGeometry>
        </mxCell>
        <mxCell id="vVjUSeeUK6tISCBlMtEA-47" style="edgeStyle=orthogonalEdgeStyle;rounded=0;orthogonalLoop=1;jettySize=auto;html=1;exitX=0.5;exitY=1;exitDx=0;exitDy=0;" edge="1" parent="1" source="vVjUSeeUK6tISCBlMtEA-13" target="vVjUSeeUK6tISCBlMtEA-33">
          <mxGeometry relative="1" as="geometry" />
        </mxCell>
        <mxCell id="vVjUSeeUK6tISCBlMtEA-13" value="" style="ellipse;whiteSpace=wrap;html=1;aspect=fixed;" vertex="1" parent="1">
          <mxGeometry x="540" y="1304" width="80" height="80" as="geometry" />
        </mxCell>
        <mxCell id="vVjUSeeUK6tISCBlMtEA-46" style="edgeStyle=orthogonalEdgeStyle;rounded=0;orthogonalLoop=1;jettySize=auto;html=1;exitX=0.5;exitY=1;exitDx=0;exitDy=0;entryX=0.5;entryY=0;entryDx=0;entryDy=0;" edge="1" parent="1" source="vVjUSeeUK6tISCBlMtEA-14" target="vVjUSeeUK6tISCBlMtEA-31">
          <mxGeometry relative="1" as="geometry" />
        </mxCell>
        <mxCell id="vVjUSeeUK6tISCBlMtEA-14" value="" style="ellipse;whiteSpace=wrap;html=1;aspect=fixed;" vertex="1" parent="1">
          <mxGeometry x="290" y="1540" width="80" height="80" as="geometry" />
        </mxCell>
        <mxCell id="vVjUSeeUK6tISCBlMtEA-41" style="edgeStyle=orthogonalEdgeStyle;rounded=0;orthogonalLoop=1;jettySize=auto;html=1;exitX=0;exitY=0.5;exitDx=0;exitDy=0;entryX=0.5;entryY=0;entryDx=0;entryDy=0;" edge="1" parent="1" source="vVjUSeeUK6tISCBlMtEA-15" target="vVjUSeeUK6tISCBlMtEA-16">
          <mxGeometry relative="1" as="geometry" />
        </mxCell>
        <mxCell id="vVjUSeeUK6tISCBlMtEA-52" style="edgeStyle=orthogonalEdgeStyle;rounded=0;orthogonalLoop=1;jettySize=auto;html=1;exitX=1;exitY=0.5;exitDx=0;exitDy=0;entryX=1;entryY=0.5;entryDx=0;entryDy=0;" edge="1" parent="1" source="vVjUSeeUK6tISCBlMtEA-15" target="vVjUSeeUK6tISCBlMtEA-39">
          <mxGeometry relative="1" as="geometry" />
        </mxCell>
        <mxCell id="vVjUSeeUK6tISCBlMtEA-15" value="" style="ellipse;whiteSpace=wrap;html=1;aspect=fixed;" vertex="1" parent="1">
          <mxGeometry x="730" y="1010" width="80" height="80" as="geometry" />
        </mxCell>
        <mxCell id="vVjUSeeUK6tISCBlMtEA-42" style="edgeStyle=orthogonalEdgeStyle;rounded=0;orthogonalLoop=1;jettySize=auto;html=1;exitX=0.5;exitY=1;exitDx=0;exitDy=0;" edge="1" parent="1" source="vVjUSeeUK6tISCBlMtEA-16" target="vVjUSeeUK6tISCBlMtEA-13">
          <mxGeometry relative="1" as="geometry" />
        </mxCell>
        <mxCell id="vVjUSeeUK6tISCBlMtEA-16" value="" style="ellipse;whiteSpace=wrap;html=1;aspect=fixed;" vertex="1" parent="1">
          <mxGeometry x="540" y="1200" width="80" height="80" as="geometry" />
        </mxCell>
        <mxCell id="vVjUSeeUK6tISCBlMtEA-18" value="numberOfItem := tabla.size()" style="text;html=1;align=center;verticalAlign=middle;resizable=0;points=[];autosize=1;strokeColor=none;" vertex="1" parent="1">
          <mxGeometry x="800" y="240" width="170" height="20" as="geometry" />
        </mxCell>
        <mxCell id="vVjUSeeUK6tISCBlMtEA-21" value="found = false;" style="text;html=1;align=center;verticalAlign=middle;resizable=0;points=[];autosize=1;strokeColor=none;" vertex="1" parent="1">
          <mxGeometry x="800" y="460" width="90" height="20" as="geometry" />
        </mxCell>
        <mxCell id="vVjUSeeUK6tISCBlMtEA-24" value="counter = 1" style="text;html=1;align=center;verticalAlign=middle;resizable=0;points=[];autosize=1;strokeColor=none;" vertex="1" parent="1">
          <mxGeometry x="800" y="664" width="80" height="20" as="geometry" />
        </mxCell>
        <mxCell id="vVjUSeeUK6tISCBlMtEA-27" value="while(!found &amp;amp;&amp;amp; (counter &amp;lt; numberOfItem))" style="text;html=1;align=center;verticalAlign=middle;resizable=0;points=[];autosize=1;strokeColor=none;" vertex="1" parent="1">
          <mxGeometry x="790" y="870" width="250" height="20" as="geometry" />
        </mxCell>
        <mxCell id="vVjUSeeUK6tISCBlMtEA-72" style="edgeStyle=orthogonalEdgeStyle;rounded=0;orthogonalLoop=1;jettySize=auto;html=1;exitX=0.5;exitY=1;exitDx=0;exitDy=0;entryX=0;entryY=0.5;entryDx=0;entryDy=0;" edge="1" parent="1" source="vVjUSeeUK6tISCBlMtEA-31" target="vVjUSeeUK6tISCBlMtEA-35">
          <mxGeometry relative="1" as="geometry" />
        </mxCell>
        <mxCell id="vVjUSeeUK6tISCBlMtEA-31" value="" style="ellipse;whiteSpace=wrap;html=1;aspect=fixed;" vertex="1" parent="1">
          <mxGeometry x="290" y="1680" width="80" height="80" as="geometry" />
        </mxCell>
        <mxCell id="vVjUSeeUK6tISCBlMtEA-49" style="edgeStyle=orthogonalEdgeStyle;rounded=0;orthogonalLoop=1;jettySize=auto;html=1;exitX=0.5;exitY=1;exitDx=0;exitDy=0;entryX=0.5;entryY=0;entryDx=0;entryDy=0;" edge="1" parent="1" source="vVjUSeeUK6tISCBlMtEA-33" target="vVjUSeeUK6tISCBlMtEA-35">
          <mxGeometry relative="1" as="geometry" />
        </mxCell>
        <mxCell id="vVjUSeeUK6tISCBlMtEA-33" value="" style="ellipse;whiteSpace=wrap;html=1;aspect=fixed;" vertex="1" parent="1">
          <mxGeometry x="540" y="1420" width="80" height="80" as="geometry" />
        </mxCell>
        <mxCell id="vVjUSeeUK6tISCBlMtEA-34" style="edgeStyle=orthogonalEdgeStyle;rounded=0;orthogonalLoop=1;jettySize=auto;html=1;exitX=0.5;exitY=1;exitDx=0;exitDy=0;entryX=0.5;entryY=0;entryDx=0;entryDy=0;" edge="1" parent="1" source="vVjUSeeUK6tISCBlMtEA-35" target="vVjUSeeUK6tISCBlMtEA-38">
          <mxGeometry relative="1" as="geometry" />
        </mxCell>
        <mxCell id="vVjUSeeUK6tISCBlMtEA-35" value="" style="ellipse;whiteSpace=wrap;html=1;aspect=fixed;" vertex="1" parent="1">
          <mxGeometry x="540" y="1850" width="80" height="80" as="geometry" />
        </mxCell>
        <mxCell id="vVjUSeeUK6tISCBlMtEA-59" style="edgeStyle=orthogonalEdgeStyle;rounded=0;orthogonalLoop=1;jettySize=auto;html=1;exitX=0.5;exitY=1;exitDx=0;exitDy=0;entryX=0.5;entryY=0;entryDx=0;entryDy=0;" edge="1" parent="1" source="vVjUSeeUK6tISCBlMtEA-36" target="vVjUSeeUK6tISCBlMtEA-37">
          <mxGeometry relative="1" as="geometry" />
        </mxCell>
        <mxCell id="vVjUSeeUK6tISCBlMtEA-36" value="" style="ellipse;whiteSpace=wrap;html=1;aspect=fixed;" vertex="1" parent="1">
          <mxGeometry x="540" y="2164" width="80" height="80" as="geometry" />
        </mxCell>
        <mxCell id="vVjUSeeUK6tISCBlMtEA-63" style="edgeStyle=orthogonalEdgeStyle;rounded=0;orthogonalLoop=1;jettySize=auto;html=1;exitX=0;exitY=0.5;exitDx=0;exitDy=0;entryX=0.5;entryY=0;entryDx=0;entryDy=0;" edge="1" parent="1" source="vVjUSeeUK6tISCBlMtEA-37" target="vVjUSeeUK6tISCBlMtEA-55">
          <mxGeometry relative="1" as="geometry" />
        </mxCell>
        <mxCell id="vVjUSeeUK6tISCBlMtEA-64" style="edgeStyle=orthogonalEdgeStyle;rounded=0;orthogonalLoop=1;jettySize=auto;html=1;exitX=1;exitY=0.5;exitDx=0;exitDy=0;entryX=0.5;entryY=0;entryDx=0;entryDy=0;" edge="1" parent="1" source="vVjUSeeUK6tISCBlMtEA-37" target="vVjUSeeUK6tISCBlMtEA-62">
          <mxGeometry relative="1" as="geometry" />
        </mxCell>
        <mxCell id="vVjUSeeUK6tISCBlMtEA-37" value="" style="ellipse;whiteSpace=wrap;html=1;aspect=fixed;" vertex="1" parent="1">
          <mxGeometry x="540" y="2264" width="80" height="80" as="geometry" />
        </mxCell>
        <mxCell id="vVjUSeeUK6tISCBlMtEA-51" style="edgeStyle=orthogonalEdgeStyle;rounded=0;orthogonalLoop=1;jettySize=auto;html=1;exitX=1;exitY=0.5;exitDx=0;exitDy=0;entryX=0.5;entryY=1;entryDx=0;entryDy=0;" edge="1" parent="1" source="vVjUSeeUK6tISCBlMtEA-38" target="vVjUSeeUK6tISCBlMtEA-15">
          <mxGeometry relative="1" as="geometry" />
        </mxCell>
        <mxCell id="vVjUSeeUK6tISCBlMtEA-38" value="" style="ellipse;whiteSpace=wrap;html=1;aspect=fixed;" vertex="1" parent="1">
          <mxGeometry x="540" y="1960" width="80" height="80" as="geometry" />
        </mxCell>
        <mxCell id="vVjUSeeUK6tISCBlMtEA-56" style="edgeStyle=orthogonalEdgeStyle;rounded=0;orthogonalLoop=1;jettySize=auto;html=1;exitX=0.5;exitY=1;exitDx=0;exitDy=0;entryX=0.5;entryY=0;entryDx=0;entryDy=0;" edge="1" parent="1" source="vVjUSeeUK6tISCBlMtEA-39" target="vVjUSeeUK6tISCBlMtEA-36">
          <mxGeometry relative="1" as="geometry">
            <mxPoint x="579.8235294117649" y="2160" as="targetPoint" />
          </mxGeometry>
        </mxCell>
        <mxCell id="vVjUSeeUK6tISCBlMtEA-39" value="" style="ellipse;whiteSpace=wrap;html=1;aspect=fixed;" vertex="1" parent="1">
          <mxGeometry x="540" y="2060" width="80" height="80" as="geometry" />
        </mxCell>
        <mxCell id="vVjUSeeUK6tISCBlMtEA-43" value="if(tabla[counter] = desiredElement)" style="text;html=1;align=center;verticalAlign=middle;resizable=0;points=[];autosize=1;strokeColor=none;" vertex="1" parent="1">
          <mxGeometry x="350" y="1280" width="200" height="20" as="geometry" />
        </mxCell>
        <mxCell id="vVjUSeeUK6tISCBlMtEA-48" value="found = true" style="text;html=1;align=center;verticalAlign=middle;resizable=0;points=[];autosize=1;strokeColor=none;" vertex="1" parent="1">
          <mxGeometry x="230" y="1630" width="80" height="20" as="geometry" />
        </mxCell>
        <mxCell id="vVjUSeeUK6tISCBlMtEA-50" value="counter += 1" style="text;html=1;align=center;verticalAlign=middle;resizable=0;points=[];autosize=1;strokeColor=none;" vertex="1" parent="1">
          <mxGeometry x="590" y="1930" width="80" height="20" as="geometry" />
        </mxCell>
        <mxCell id="vVjUSeeUK6tISCBlMtEA-69" style="edgeStyle=orthogonalEdgeStyle;rounded=0;orthogonalLoop=1;jettySize=auto;html=1;exitX=0.5;exitY=1;exitDx=0;exitDy=0;entryX=0;entryY=0.5;entryDx=0;entryDy=0;" edge="1" parent="1" source="vVjUSeeUK6tISCBlMtEA-53" target="vVjUSeeUK6tISCBlMtEA-61">
          <mxGeometry relative="1" as="geometry" />
        </mxCell>
        <mxCell id="vVjUSeeUK6tISCBlMtEA-53" value="" style="ellipse;whiteSpace=wrap;html=1;aspect=fixed;" vertex="1" parent="1">
          <mxGeometry x="320" y="2514" width="80" height="80" as="geometry" />
        </mxCell>
        <mxCell id="vVjUSeeUK6tISCBlMtEA-65" value="" style="edgeStyle=orthogonalEdgeStyle;rounded=0;orthogonalLoop=1;jettySize=auto;html=1;" edge="1" parent="1" source="vVjUSeeUK6tISCBlMtEA-55" target="vVjUSeeUK6tISCBlMtEA-53">
          <mxGeometry relative="1" as="geometry" />
        </mxCell>
        <mxCell id="vVjUSeeUK6tISCBlMtEA-55" value="" style="ellipse;whiteSpace=wrap;html=1;aspect=fixed;" vertex="1" parent="1">
          <mxGeometry x="320" y="2410" width="80" height="80" as="geometry" />
        </mxCell>
        <mxCell id="vVjUSeeUK6tISCBlMtEA-57" value="if(found)" style="text;html=1;align=center;verticalAlign=middle;resizable=0;points=[];autosize=1;strokeColor=none;" vertex="1" parent="1">
          <mxGeometry x="490" y="2140" width="60" height="20" as="geometry" />
        </mxCell>
        <mxCell id="vVjUSeeUK6tISCBlMtEA-70" style="edgeStyle=orthogonalEdgeStyle;rounded=0;orthogonalLoop=1;jettySize=auto;html=1;exitX=0.5;exitY=1;exitDx=0;exitDy=0;entryX=1;entryY=0.5;entryDx=0;entryDy=0;" edge="1" parent="1" source="vVjUSeeUK6tISCBlMtEA-60" target="vVjUSeeUK6tISCBlMtEA-61">
          <mxGeometry relative="1" as="geometry" />
        </mxCell>
        <mxCell id="vVjUSeeUK6tISCBlMtEA-60" value="" style="ellipse;whiteSpace=wrap;html=1;aspect=fixed;" vertex="1" parent="1">
          <mxGeometry x="740" y="2516" width="80" height="80" as="geometry" />
        </mxCell>
        <mxCell id="vVjUSeeUK6tISCBlMtEA-61" value="" style="ellipse;whiteSpace=wrap;html=1;aspect=fixed;" vertex="1" parent="1">
          <mxGeometry x="550" y="2710" width="80" height="80" as="geometry" />
        </mxCell>
        <mxCell id="vVjUSeeUK6tISCBlMtEA-66" value="" style="edgeStyle=orthogonalEdgeStyle;rounded=0;orthogonalLoop=1;jettySize=auto;html=1;" edge="1" parent="1" source="vVjUSeeUK6tISCBlMtEA-62" target="vVjUSeeUK6tISCBlMtEA-60">
          <mxGeometry relative="1" as="geometry" />
        </mxCell>
        <mxCell id="vVjUSeeUK6tISCBlMtEA-62" value="" style="ellipse;whiteSpace=wrap;html=1;aspect=fixed;" vertex="1" parent="1">
          <mxGeometry x="740" y="2412" width="80" height="80" as="geometry" />
        </mxCell>
        <mxCell id="vVjUSeeUK6tISCBlMtEA-67" value="return true;" style="text;html=1;align=center;verticalAlign=middle;resizable=0;points=[];autosize=1;strokeColor=none;" vertex="1" parent="1">
          <mxGeometry x="260" y="2490" width="70" height="20" as="geometry" />
        </mxCell>
        <mxCell id="vVjUSeeUK6tISCBlMtEA-68" value="return false" style="text;html=1;align=center;verticalAlign=middle;resizable=0;points=[];autosize=1;strokeColor=none;" vertex="1" parent="1">
          <mxGeometry x="810" y="2500" width="80" height="20" as="geometry" />
        </mxCell>
      </root>
    </mxGraphModel>
  </diagram>
</mxfile>
